# xmcd CD database file
#
# Track frame offsets:
#	150
#	73225
#	134243
#
# Disc length: 2808 seconds
#
# Revision: 0
# Processed by: cddbd v1.5.2PL0 Copyright (c) Steve Scherf et al.
# Submitted via: CDex 1.51
#
DISCID=310af603
DTITLE=Medwyn Goodall - Earth Love [CD2)
DYEAR=2001
DGENRE=New Age
TTITLE0=Earth Love V
TTITLE1=Earth Love VI
TTITLE2=Earth Love VII
EXTD=YEAR: 2001
EXTT0=
EXTT1=
EXTT2=
PLAYORDER=
